<svg width="400" height="400" viewBox="0 0 400 400" fill="none" xmlns="http://www.w3.org/2000/svg">
<mask id="path-1-inside-1_3_3" fill="white">
<rect x="56.5002" y="60.522" width="287.915" height="287.915" rx="10"/>
</mask>
<rect x="56.5002" y="60.522" width="287.915" height="287.915" rx="10" stroke="#00FFD5" stroke-width="60" mask="url(#path-1-inside-1_3_3)"/>
<rect x="108.892" y="325.502" width="22.4349" height="57.5873" rx="4.5" fill="#00FFD5" stroke="#00FFD5"/>
<rect x="162.457" y="325.502" width="22.4349" height="57.5873" rx="4.5" fill="#00FFD5" stroke="#00FFD5"/>
<rect x="216.023" y="325.502" width="22.4349" height="57.5873" rx="4.5" fill="#00FFD5" stroke="#00FFD5"/>
<rect x="269.589" y="325.502" width="22.4349" height="57.5873" rx="4.5" fill="#00FFD5" stroke="#00FFD5"/>
<rect x="108.892" y="17.5" width="22.4349" height="57.5873" rx="4.5" fill="#00FFD5" stroke="#00FFD5"/>
<rect x="162.457" y="17.5" width="22.4349" height="57.5873" rx="4.5" fill="#00FFD5" stroke="#00FFD5"/>
<rect x="216.023" y="17.5" width="22.4349" height="57.5873" rx="4.5" fill="#00FFD5" stroke="#00FFD5"/>
<rect x="269.589" y="17.5" width="22.4349" height="57.5873" rx="4.5" fill="#00FFD5" stroke="#00FFD5"/>
<rect x="382.415" y="112.914" width="22.4349" height="57.5873" rx="4.5" transform="rotate(90 382.415 112.914)" fill="#00FFD5" stroke="#00FFD5"/>
<rect x="382.415" y="166.479" width="22.4349" height="57.5873" rx="4.5" transform="rotate(90 382.415 166.479)" fill="#00FFD5" stroke="#00FFD5"/>
<rect x="382.415" y="220.045" width="22.4349" height="57.5873" rx="4.5" transform="rotate(90 382.415 220.045)" fill="#00FFD5" stroke="#00FFD5"/>
<rect x="382.415" y="273.61" width="22.4349" height="57.5873" rx="4.5" transform="rotate(90 382.415 273.61)" fill="#00FFD5" stroke="#00FFD5"/>
<rect x="76.0873" y="112.914" width="22.4349" height="57.5873" rx="4.5" transform="rotate(90 76.0873 112.914)" fill="#00FFD5" stroke="#00FFD5"/>
<rect x="76.0873" y="166.479" width="22.4349" height="57.5873" rx="4.5" transform="rotate(90 76.0873 166.479)" fill="#00FFD5" stroke="#00FFD5"/>
<rect x="76.0873" y="220.045" width="22.4349" height="57.5873" rx="4.5" transform="rotate(90 76.0873 220.045)" fill="#00FFD5" stroke="#00FFD5"/>
<rect x="76.0873" y="273.61" width="22.4349" height="57.5873" rx="4.5" transform="rotate(90 76.0873 273.61)" fill="#00FFD5" stroke="#00FFD5"/>
<path d="M120.82 151.625L168.149 256.142L197.729 191.065L235.197 256.142L280.554 151.625" stroke="#00FFD5" stroke-width="10"/>
<circle cx="119.834" cy="150.639" r="14.2902" fill="#00FFD5"/>
<circle cx="119.834" cy="150.639" r="14.2902" fill="#00FFD5"/>
<circle cx="119.834" cy="150.639" r="14.2902" stroke="#00FFD5"/>
<circle cx="169.135" cy="265.016" r="14.2902" fill="#00FFD5"/>
<circle cx="169.135" cy="265.016" r="14.2902" fill="#00FFD5"/>
<circle cx="169.135" cy="265.016" r="14.2902" stroke="#00FFD5"/>
<circle cx="198.715" cy="180.219" r="14.2902" fill="#00FFD5"/>
<circle cx="198.715" cy="180.219" r="14.2902" fill="#00FFD5"/>
<circle cx="198.715" cy="180.219" r="14.2902" stroke="#00FFD5"/>
<circle cx="238.155" cy="265.016" r="14.2902" fill="#00FFD5"/>
<circle cx="238.155" cy="265.016" r="14.2902" fill="#00FFD5"/>
<circle cx="238.155" cy="265.016" r="14.2902" stroke="#00FFD5"/>
<circle cx="281.54" cy="150.639" r="14.2902" fill="#00FFD5"/>
<circle cx="281.54" cy="150.639" r="14.2902" fill="#00FFD5"/>
<circle cx="281.54" cy="150.639" r="14.2902" stroke="#00FFD5"/>
</svg>
